<svg width="19" height="20" viewBox="0 0 19 20" fill="none" xmlns="http://www.w3.org/2000/svg">
<path d="M3.66406 12.5H2.83073C2.3887 12.5 1.96478 12.3244 1.65222 12.0119C1.33966 11.6993 1.16406 11.2754 1.16406 10.8334V3.33335C1.16406 2.89133 1.33966 2.4674 1.65222 2.15484C1.96478 1.84228 2.3887 1.66669 2.83073 1.66669H10.3307C10.7728 1.66669 11.1967 1.84228 11.5092 2.15484C11.8218 2.4674 11.9974 2.89133 11.9974 3.33335V4.16669M8.66667 7.5H16.1667C17.0871 7.5 17.8333 8.24619 17.8333 9.16667V16.6667C17.8333 17.5871 17.0871 18.3333 16.1667 18.3333H8.66667C7.74619 18.3333 7 17.5871 7 16.6667V9.16667C7 8.24619 7.74619 7.5 8.66667 7.5Z" stroke="white" stroke-width="1.5" stroke-linecap="round" stroke-linejoin="round"/>
</svg>
